# xmcd CD database file
#
# Track frame offsets:
#	150
#	13665
#	23239
#	35376
#	47401
#	59371
#	67441
#	84807
#	92156
#	103366
#	114225
#	121510
#
# Disc length: 1815 seconds
#
# Revision: 0
# Processed by: cddbd v1.5.2PL0 Copyright (c) Steve Scherf et al.
# Submitted via: CDex 1.73
#
DISCID=9407150c
DTITLE=Statler Brothers - The Best From The Farewell Concert
DYEAR=2013
DGENRE=Country
TTITLE0=Do You Remember These
TTITLE1=Do You Know You Are My Sunshine
TTITLE2=Class Of '57
TTITLE3=Bed Of Roses
TTITLE4=Memories Are Made Of This
TTITLE5=Whatever Happend To Randolph Scott
TTITLE6=More Than A Name On A Wall
TTITLE7=Flowers On The Wall
TTITLE8=Elizabeth
TTITLE9=I'll Go To My Grave Loving You
TTITLE10=This Ole House
TTITLE11=Amazing Grace
EXTD=YEAR: 2013
EXTT0=
EXTT1=
EXTT2=
EXTT3=
EXTT4=
EXTT5=
EXTT6=
EXTT7=
EXTT8=
EXTT9=
EXTT10=
EXTT11=
PLAYORDER=
